<svg width="6" height="10" viewBox="0 0 6 10" fill="none" xmlns="http://www.w3.org/2000/svg">
<path d="M2.57475 0.458304C2.68755 0.347828 2.84051 0.285767 3 0.285767C3.15949 0.285767 3.31245 0.347828 3.42524 0.458304L5.83116 2.81548C5.94072 2.92662 6.00135 3.07548 5.99998 3.22999C5.99861 3.3845 5.93535 3.5323 5.82383 3.64156C5.71231 3.75082 5.56145 3.8128 5.40375 3.81414C5.24604 3.81548 5.09411 3.75608 4.98067 3.64874L3.60148 2.29749V9.12504C3.60148 9.28134 3.53811 9.43122 3.42531 9.54174C3.31251 9.65225 3.15952 9.71434 3 9.71434C2.84048 9.71434 2.68749 9.65225 2.57469 9.54174C2.46189 9.43122 2.39852 9.28134 2.39852 9.12504V2.29749L1.01933 3.64874C0.905892 3.75608 0.753957 3.81548 0.596252 3.81414C0.438546 3.8128 0.287688 3.75082 0.176169 3.64156C0.06465 3.5323 0.00139316 3.3845 2.27375e-05 3.22999C-0.00134768 3.07548 0.0592779 2.92662 0.168842 2.81548L2.57475 0.458304Z" fill="#353535"/>
</svg>
