<svg width="6" height="10" viewBox="0 0 6 10" fill="none" xmlns="http://www.w3.org/2000/svg">
<path d="M3.42525 9.25605C3.31245 9.36653 3.15949 9.42859 3 9.42859C2.84051 9.42859 2.68755 9.36653 2.57476 9.25605L0.168842 6.89888C0.0592782 6.78774 -0.00134775 6.63888 2.26564e-05 6.48437C0.00139306 6.32986 0.06465 6.18205 0.176169 6.0728C0.287688 5.96354 0.438546 5.90156 0.596252 5.90022C0.753957 5.89887 0.905892 5.95827 1.01933 6.06562L2.39852 7.41687L2.39852 0.589311C2.39852 0.43302 2.46189 0.283131 2.57469 0.172617C2.68749 0.0621029 2.84048 1.72056e-05 3 1.71917e-05C3.15952 1.71777e-05 3.31251 0.0621028 3.42531 0.172617C3.53811 0.283131 3.60148 0.43302 3.60148 0.589311L3.60148 7.41687L4.98067 6.06562C5.09411 5.95827 5.24604 5.89887 5.40375 5.90022C5.56145 5.90156 5.71231 5.96353 5.82383 6.07279C5.93535 6.18205 5.99861 6.32986 5.99998 6.48437C6.00135 6.63888 5.94072 6.78774 5.83116 6.89888L3.42525 9.25605Z" fill="#353535"/>
</svg>
