<svg width="12" height="12" viewBox="0 0 12 12" fill="none" xmlns="http://www.w3.org/2000/svg">
<path fill-rule="evenodd" clip-rule="evenodd" d="M7.8 5.38875C7.26788 5.38868 6.75085 5.20854 6.33013 4.87663C5.90941 4.54471 5.60883 4.07983 5.4756 3.555H0.6C0.44087 3.555 0.288258 3.4906 0.175736 3.37597C0.0632141 3.26133 0 3.10586 0 2.94375C0 2.78163 0.0632141 2.62616 0.175736 2.51153C0.288258 2.3969 0.44087 2.3325 0.6 2.3325H5.4756C5.60906 1.8079 5.90974 1.3433 6.33044 1.01163C6.75114 0.679959 7.26804 0.5 7.8 0.5C8.33196 0.5 8.84886 0.679959 9.26956 1.01163C9.69026 1.3433 9.99094 1.8079 10.1244 2.3325H11.4C11.5591 2.3325 11.7117 2.3969 11.8243 2.51153C11.9368 2.62616 12 2.78163 12 2.94375C12 3.10586 11.9368 3.26133 11.8243 3.37597C11.7117 3.4906 11.5591 3.555 11.4 3.555H10.1244C9.99117 4.07983 9.69059 4.54471 9.26987 4.87663C8.84915 5.20854 8.33212 5.38868 7.8 5.38875ZM0.6 8.445C0.44087 8.445 0.288258 8.5094 0.175736 8.62403C0.0632141 8.73867 0 8.89414 0 9.05625C0 9.21837 0.0632141 9.37384 0.175736 9.48847C0.288258 9.60311 0.44087 9.6675 0.6 9.6675H1.8756C2.00906 10.1921 2.30974 10.6567 2.73044 10.9884C3.15114 11.32 3.66804 11.5 4.2 11.5C4.73196 11.5 5.24886 11.32 5.66956 10.9884C6.09026 10.6567 6.39094 10.1921 6.5244 9.6675H11.4C11.5591 9.6675 11.7117 9.60311 11.8243 9.48847C11.9368 9.37384 12 9.21837 12 9.05625C12 8.89414 11.9368 8.73867 11.8243 8.62403C11.7117 8.5094 11.5591 8.445 11.4 8.445H6.5244C6.39094 7.9204 6.09026 7.4558 5.66956 7.12414C5.24886 6.79247 4.73196 6.61251 4.2 6.61251C3.66804 6.61251 3.15114 6.79247 2.73044 7.12414C2.30974 7.4558 2.00906 7.9204 1.8756 8.445H0.6ZM7.8 4.16625C8.11826 4.16625 8.42348 4.03745 8.64853 3.80819C8.87357 3.57892 9 3.26797 9 2.94375C9 2.61952 8.87357 2.30857 8.64853 2.07931C8.42348 1.85004 8.11826 1.72124 7.8 1.72124C7.48174 1.72124 7.17652 1.85004 6.95147 2.07931C6.72643 2.30857 6.6 2.61952 6.6 2.94375C6.6 3.26797 6.72643 3.57892 6.95147 3.80819C7.17652 4.03745 7.48174 4.16625 7.8 4.16625ZM5.4 9.05625C5.4 9.38048 5.27357 9.69143 5.04853 9.92069C4.82348 10.15 4.51826 10.2788 4.2 10.2788C3.88174 10.2788 3.57652 10.15 3.35147 9.92069C3.12643 9.69143 3 9.38048 3 9.05625C3 8.73203 3.12643 8.42108 3.35147 8.19181C3.57652 7.96255 3.88174 7.83375 4.2 7.83375C4.51826 7.83375 4.82348 7.96255 5.04853 8.19181C5.27357 8.42108 5.4 8.73203 5.4 9.05625Z" fill="#373737"/>
</svg>
