<svg width="50" height="50" viewBox="0 0 50 50" fill="none" xmlns="http://www.w3.org/2000/svg">
<path d="M3.71642 23.4769H8.32211C8.31695 22.7992 8.4657 22.1288 8.7575 21.5145C9.03227 20.9369 9.40563 20.4096 9.86141 19.9555H10.1128C10.1128 20.1722 10.0577 20.4009 10.0392 20.6357C10.0209 20.8705 10.0086 21.051 10.0024 21.2858C9.99633 21.5205 10.0024 21.7493 10.0024 21.966C10.0024 22.2851 10.0024 22.568 10.0024 22.8088C10.0024 23.0496 10.0024 23.2663 10.0392 23.4529C10.0544 23.6286 10.079 23.8034 10.1128 23.9766H0V23.7298L1.53931 23.3505V7.019L0 6.6217V6.36887H5.2496V6.6217L3.71642 6.99492V23.4769Z" fill="#373737"/>
<path d="M20.3728 18.8358H15.1232L13.8415 23.1098L15.5095 23.7118V23.9586H11.6521V23.7118L13.3202 23.1098L18.3245 6.01973H18.7109L24.0892 23.3687L25.6224 23.7479V23.9947H20.2379V23.7479L21.7772 23.3687L20.3728 18.8358ZM15.252 18.3602H20.2379L17.6621 10.0409L15.252 18.3602Z" fill="#373737"/>
<path d="M31.0009 6.39295C31.9616 6.37515 32.9198 6.49273 33.8465 6.74209C34.5671 6.93782 35.2449 7.26229 35.8457 7.69923C36.3445 8.06757 36.7479 8.54601 37.0232 9.09577C37.2781 9.62671 37.4101 10.2065 37.4095 10.7934C37.4162 11.2338 37.3436 11.672 37.1949 12.0876C37.0577 12.4479 36.8676 12.7866 36.6307 13.093C36.4051 13.388 36.1291 13.6426 35.8151 13.8454C35.5234 14.0389 35.2156 14.208 34.8951 14.3511C34.1155 14.6791 33.2873 14.8823 32.442 14.953C33.1486 15.0248 33.8395 15.2036 34.4904 15.4827C35.0443 15.7351 35.5471 16.0839 35.9745 16.5121C36.4546 17.0089 36.7449 17.6533 36.7963 18.3361L37.3053 22.7305C37.3151 22.9745 37.3959 23.2105 37.5384 23.4108C37.5869 23.4729 37.649 23.5234 37.7202 23.5589C37.7912 23.5943 37.8695 23.6137 37.9492 23.6155C38.0461 23.6112 38.1398 23.5798 38.2191 23.5252C38.3145 23.462 38.4048 23.3916 38.4889 23.3144C38.5812 23.216 38.6577 23.1044 38.7159 22.9834L38.9734 23.2362C38.872 23.4641 38.7238 23.6691 38.538 23.8382C38.351 23.9899 38.1448 24.1173 37.9247 24.2174C37.6469 24.3383 37.3454 24.3979 37.0416 24.392C36.5202 24.4143 36.0102 24.2373 35.6188 23.8984C35.2743 23.607 35.0552 23.1983 35.0055 22.7546L34.4904 18.3602C34.4414 17.867 34.3302 17.3817 34.1592 16.9155C34.0331 16.5505 33.8233 16.219 33.5459 15.9463C33.2556 15.6678 32.8962 15.4686 32.5034 15.3684C32.0198 15.2404 31.52 15.1816 31.0193 15.1938H29.9767V23.3626L31.516 23.7419V23.9887H26.2664V23.7419L27.7996 23.3626V7.019L26.2664 6.6217V6.36887L31.0009 6.39295ZM34.9565 10.7934C34.9916 10.268 34.9191 9.74109 34.7433 9.24382C34.5673 8.74648 34.2916 8.28874 33.9323 7.89788C33.5341 7.54523 33.0678 7.27455 32.5612 7.10188C32.0545 6.92921 31.5177 6.85804 30.9825 6.89259H29.9767V14.7183H31.0009C31.5361 14.7528 32.0729 14.6816 32.5795 14.509C33.0862 14.3363 33.5525 14.0656 33.9507 13.713C34.311 13.3185 34.5859 12.8563 34.7587 12.3544C34.9316 11.8526 34.9989 11.3215 34.9565 10.7934Z" fill="#373737"/>
<path d="M2.37949 29.7616C2.3635 30.4043 2.58087 31.0316 2.99277 31.5314C3.43388 32.059 3.95027 32.5212 4.52595 32.9039C5.13922 33.3193 5.81381 33.7346 6.53748 34.138C7.26482 34.5302 7.95094 34.9919 8.58578 35.5165C9.19883 36.0275 9.71742 36.6384 10.119 37.3224C10.5495 38.0898 10.7612 38.957 10.7323 39.8327C10.7327 40.452 10.6098 41.0655 10.3704 41.6386C10.1398 42.1967 9.79555 42.7027 9.35852 43.1255C8.91508 43.5488 8.38953 43.8805 7.81305 44.1006C7.19208 44.3402 6.53009 44.4607 5.86287 44.4558C5.30286 44.4673 4.74382 44.4045 4.20091 44.2692C3.8014 44.1645 3.41477 44.0171 3.04796 43.8298C2.72083 43.6737 2.41909 43.4708 2.15259 43.2278C1.99865 43.4939 1.80426 43.7355 1.57611 43.9441C1.37384 44.1452 1.12265 44.2923 0.84632 44.3716H0.459957C0.459957 44.1368 0.496753 43.8839 0.515152 43.6191C0.53355 43.3542 0.545815 43.1555 0.564213 42.8907C0.582612 42.6258 0.564213 42.3609 0.564213 42.1081C0.564213 41.8553 0.564213 41.5423 0.564213 41.2653C0.564213 40.9884 0.527417 40.7356 0.515152 40.5009C0.502886 40.2661 0.478355 39.9711 0.459957 39.7183H0.84632C1.12314 40.9071 1.71073 42.0046 2.55121 42.9027C2.95876 43.2676 3.43716 43.5479 3.95775 43.7268C4.47834 43.9058 5.03038 43.9797 5.58077 43.9441C6.04304 43.9623 6.50412 43.8861 6.93482 43.7203C7.36552 43.5545 7.75647 43.3027 8.08289 42.9809C8.74469 42.2562 9.08844 41.3044 9.03961 40.3323C9.06227 39.6777 8.84469 39.0367 8.42633 38.5263C7.98109 38.0022 7.46292 37.5422 6.88704 37.1598C6.27377 36.7385 5.6053 36.3291 4.88164 35.9559C4.16798 35.5649 3.49436 35.1073 2.87011 34.5895C2.25698 34.077 1.73655 33.4663 1.3308 32.7835C0.899555 32.0141 0.687692 31.1449 0.717531 30.2673C0.714802 29.7149 0.827516 29.1679 1.0487 28.66C1.26609 28.1651 1.58077 27.7171 1.97473 27.3416C2.37161 26.9598 2.84023 26.6573 3.35459 26.4508C3.8988 26.2292 4.48262 26.1166 5.07176 26.1197C5.53216 26.111 5.99063 26.1802 6.42709 26.3244C6.77283 26.4367 7.10742 26.5798 7.42672 26.7517C7.72907 26.9234 8.01266 27.1252 8.27305 27.3537C8.41602 27.0905 8.6025 26.8525 8.825 26.6494C9.02625 26.447 9.27773 26.2998 9.55477 26.222H9.935C9.9043 26.4748 9.87977 26.7277 9.86141 26.9745C9.84297 27.2212 9.86141 27.4621 9.82461 27.7209C9.78781 27.9798 9.82461 28.2326 9.82461 28.4854C9.82461 28.7383 9.82461 29.0512 9.82461 29.3282C9.82461 29.6051 9.82461 29.858 9.86141 30.0927C9.8982 30.3275 9.9043 30.6224 9.935 30.8752H9.55477C9.27641 29.6992 8.71258 28.6067 7.91117 27.6909C7.58469 27.3392 7.18545 27.0602 6.74018 26.8723C6.29492 26.6844 5.81391 26.5919 5.32933 26.6012C4.9373 26.5913 4.54751 26.6623 4.18516 26.8095C3.82282 26.9568 3.49599 27.177 3.22581 27.456C2.93687 27.763 2.7132 28.1234 2.56788 28.5161C2.42256 28.9089 2.35852 29.3262 2.37949 29.7435" fill="#373737"/>
<path d="M21.4644 43.589C21.4562 42.9109 21.6052 42.2399 21.8998 41.6266C22.1723 41.0491 22.5437 40.5218 22.9976 40.0674H23.2551C23.2183 40.2841 23.1938 40.5129 23.1754 40.7477C23.157 40.9824 23.1754 41.1691 23.1386 41.4038C23.1018 41.6386 23.1386 41.8613 23.1386 42.078C23.1386 42.397 23.1386 42.68 23.1386 42.9208C23.1386 43.1616 23.1386 43.3783 23.1754 43.5649C23.1893 43.7411 23.2159 43.9161 23.2551 44.0886H12.6271V43.8418L14.1603 43.4626V27.119L12.6271 26.7457V26.4869H22.9976C22.9602 26.6615 22.9356 26.8385 22.924 27.0166C22.924 27.1972 22.8933 27.4139 22.881 27.6547C22.8688 27.8955 22.881 28.1784 22.881 28.4975C22.881 28.8165 22.881 28.961 22.881 29.1898C22.881 29.4185 22.881 29.6292 22.924 29.8278C22.9669 30.0265 22.9669 30.2913 22.9976 30.508H22.74C22.2836 30.0557 21.912 29.5279 21.6422 28.949C21.3511 28.3366 21.2023 27.6683 21.2068 26.9925H16.3374V34.5353H18.7905L19.9434 32.2779H20.201V37.3224H19.9434L18.7905 35.059H16.3374V43.607L21.4644 43.589Z" fill="#373737"/>
<path d="M36.6552 27.3718L34.9871 26.7457V26.4929H38.8323V26.7457L37.1642 27.3718V44.3414H36.784L28.0755 28.6299V43.2097L29.7375 43.8418V44.0886H25.8984V43.8418L27.5604 43.2097V27.2453L25.8984 26.7457V26.4929H29.3573L36.6552 39.6942V27.3718Z" fill="#373737"/>
<path d="M38.2892 -0.000915527L37.9127 0.0842018L49.6248 49.9994L50.0013 49.9143L38.2892 -0.000915527Z" fill="#373737"/>
</svg>
