<svg width="14" height="14" viewBox="0 0 14 14" fill="none" xmlns="http://www.w3.org/2000/svg">
<path d="M3.9388 5.68767C3.45488 5.68767 3.06392 6.07863 3.06392 6.56256C3.06392 7.04648 3.45488 7.43744 3.9388 7.43744C4.42273 7.43744 4.81369 7.04648 4.81369 6.56256C4.81369 6.07863 4.42273 5.68767 3.9388 5.68767ZM7.00091 5.68767C6.51699 5.68767 6.12602 6.07863 6.12602 6.56256C6.12602 7.04648 6.51699 7.43744 7.00091 7.43744C7.48483 7.43744 7.87579 7.04648 7.87579 6.56256C7.87579 6.07863 7.48483 5.68767 7.00091 5.68767ZM10.063 5.68767C9.57909 5.68767 9.18812 6.07863 9.18812 6.56256C9.18812 7.04648 9.57909 7.43744 10.063 7.43744C10.5469 7.43744 10.9379 7.04648 10.9379 6.56256C10.9379 6.07863 10.5469 5.68767 10.063 5.68767ZM7.00091 0.875793C3.135 0.875793 0.00181452 3.42117 0.00181452 6.56256C0.00181452 7.86395 0.545885 9.05598 1.44811 10.0156C1.04074 11.0928 0.193196 12.006 0.179526 12.0169C-0.000919503 12.2083 -0.0501319 12.4872 0.0537609 12.7278C0.157654 12.9684 0.395513 13.1242 0.657979 13.1242C2.3394 13.1242 3.6654 12.4216 4.461 11.8584C5.25113 12.1071 6.10415 12.2493 7.00091 12.2493C10.8668 12.2493 14 9.70395 14 6.56256C14 3.42117 10.8668 0.875793 7.00091 0.875793ZM7.00091 10.937C6.27092 10.937 5.54914 10.8249 4.85744 10.6062L4.23681 10.4093L3.70368 10.7866C3.31271 11.0628 2.77685 11.3717 2.13162 11.5795C2.3312 11.2487 2.52532 10.8768 2.67569 10.4804L2.96549 9.71215L2.40228 9.11613C1.90743 8.58847 1.31414 7.71631 1.31414 6.56256C1.31414 4.15115 3.86499 2.18812 7.00091 2.18812C10.1368 2.18812 12.6877 4.15115 12.6877 6.56256C12.6877 8.97396 10.1368 10.937 7.00091 10.937Z" fill="#373737"/>
</svg>
