<svg width="12" height="10" viewBox="0 0 12 10" fill="none" xmlns="http://www.w3.org/2000/svg">
<path d="M2.57159 0.183125C2.68424 0.0659557 2.83701 0.000133514 2.99631 0.000133514C3.1556 0.000133514 3.30838 0.0659557 3.42103 0.183125L5.82398 2.68313C5.93341 2.801 5.99396 2.95888 5.99259 3.12275C5.99123 3.28662 5.92805 3.44338 5.81667 3.55926C5.70528 3.67514 5.55461 3.74087 5.3971 3.7423C5.23959 3.74372 5.08784 3.68072 4.97454 3.56687L3.59705 2.13375V9.375C3.59705 9.54076 3.53376 9.69973 3.42109 9.81694C3.30843 9.93415 3.15563 10 2.99631 10C2.83698 10 2.68418 9.93415 2.57152 9.81694C2.45886 9.69973 2.39557 9.54076 2.39557 9.375V2.13375L1.01808 3.56687C0.904778 3.68072 0.75303 3.74372 0.595518 3.7423C0.438006 3.74087 0.287334 3.67514 0.175952 3.55926C0.0645704 3.44338 0.00139144 3.28662 2.27095e-05 3.12275C-0.00134602 2.95888 0.059205 2.801 0.168634 2.68313L2.57159 0.183125ZM8.40295 7.86625V0.625C8.40295 0.45924 8.46624 0.300269 8.5789 0.183058C8.69156 0.0658481 8.84437 0 9.00369 0C9.16302 0 9.31582 0.0658481 9.42848 0.183058C9.54114 0.300269 9.60443 0.45924 9.60443 0.625V7.86625L10.9819 6.43313C11.0952 6.31928 11.247 6.25628 11.4045 6.2577C11.562 6.25913 11.7127 6.32486 11.824 6.44074C11.9354 6.55662 11.9986 6.71338 12 6.87725C12.0013 7.04112 11.9408 7.199 11.8314 7.31687L9.42841 9.81688C9.31576 9.93404 9.16298 9.99987 9.00369 9.99987C8.8444 9.99987 8.69162 9.93404 8.57897 9.81688L6.17602 7.31687C6.06659 7.199 6.00604 7.04112 6.0074 6.87725C6.00877 6.71338 6.07195 6.55662 6.18333 6.44074C6.29472 6.32486 6.44539 6.25913 6.6029 6.2577C6.76041 6.25628 6.91216 6.31928 7.02546 6.43313L8.40295 7.86625Z" fill="#353535"/>
</svg>
